<svg width="293" height="45" viewBox="0 0 293 45" fill="none" xmlns="http://www.w3.org/2000/svg">
<g clip-path="url(#clip0_3157_432)">
<path d="M261.667 9.4677H251.316V45.1627H261.667V9.4677Z" fill="#2F2B29"/>
<path d="M291.993 8.88001L279.442 0.253494C278.57 -0.347728 277.525 -0.671982 276.453 -0.671982H261.694V9.46772H274.813L283.815 15.6556V45.156H294.2V13.0278C294.2 11.3795 293.377 9.8325 292 8.88001" fill="#2F2B29"/>
<path d="M193.009 -0.692223L178.686 -0.550361C177.538 -0.536851 176.424 -0.158554 175.517 0.537241L166.018 7.85323C164.772 8.81248 164.046 10.2716 164.046 11.8186V45.183H174.431V14.2708L180.562 9.54881L193.106 9.42721L193.002 -0.685467L193.009 -0.692223Z" fill="#2F2B29"/>
<path d="M164.093 -0.692223H145.557V9.42721H164.093V-0.692223Z" fill="#2F2B29"/>
<path d="M61.6344 23.1674V9.42041H71.2935L74.8637 14.8719L61.6344 23.1742V23.1674ZM81.9558 35.077L75.7286 26.3762L89.1725 17.9388L85.9482 13.0345L85.9758 13.0142L78.5239 1.6248C77.5691 0.1589 75.9224 -0.726044 74.1441 -0.726044H51.2488V45.21H61.6344V35.2189L66.9898 31.8615L74.9883 43.0483C75.9569 44.4061 77.5483 45.2167 79.2435 45.2167H89.2001V35.077H81.9489H81.9558Z" fill="#2F2B29"/>
<path d="M10.7315 35.5566H20.3976C21.4977 35.5566 22.5079 35.4621 23.4074 35.2662C24.3138 35.0703 25.0887 34.7933 25.7253 34.4285C26.3687 34.0637 26.8531 33.5638 27.1852 32.9423C27.5173 32.3141 27.6834 31.598 27.6834 30.7739C27.6834 29.9092 27.5381 29.1999 27.2544 28.6392C26.9638 28.0785 26.5348 27.6192 25.9674 27.2476C25.3932 26.8828 24.7082 26.6261 23.9125 26.4708C23.1168 26.3222 22.2104 26.2478 21.2002 26.2478H10.7385V35.5566H10.7315ZM10.7315 17.6416H19.2767C20.3353 17.6416 21.2763 17.5335 22.0927 17.3173C22.9092 17.1012 23.5803 16.7904 24.1131 16.3784C24.639 15.973 25.0541 15.4732 25.3378 14.8922C25.6215 14.3112 25.7668 13.629 25.7668 12.8521C25.7668 11.8185 25.5108 11.0349 25.0057 10.4945C24.4937 9.95407 23.7879 9.58929 22.8884 9.39339C21.982 9.19748 20.9372 9.10291 19.7402 9.10291H10.7315V17.6348V17.6416ZM0 45.1897V-0.590942H21.9198C23.9955 -0.590942 25.9052 -0.381528 27.6488 0.0237895C29.3924 0.435863 30.9146 1.10464 32.2154 2.03011C33.5162 2.95559 34.5471 4.18505 35.2944 5.7185C36.0417 7.2452 36.4222 9.17722 36.4222 11.5078C36.4222 13.2777 36.0002 14.953 35.1629 16.5472C34.3257 18.1415 33.1287 19.371 31.5858 20.2356C33.6615 21.0125 35.329 22.2825 36.5883 24.0524C37.8476 25.8223 38.4772 28.1258 38.4772 30.9698C38.4772 33.6449 37.9583 35.8809 36.9204 37.6913C35.8825 39.5017 34.471 40.9676 32.679 42.089C30.8939 43.2104 28.8043 44.0075 26.4172 44.4804C24.037 44.9533 21.4977 45.1897 18.7992 45.1897H0Z" fill="#2F2B29"/>
<path d="M118.552 45.7031C113.916 45.7031 110.097 44.8857 107.094 43.2442C104.091 41.6094 101.87 39.191 100.438 36.0025C99.0055 32.814 98.2859 28.9365 98.2859 24.3631V-0.590942H109.017V24.9508C109.017 26.8085 109.301 28.5717 109.875 30.2537C110.45 31.9358 111.439 33.3004 112.858 34.361C114.269 35.4148 116.213 35.9417 118.683 35.9417C121.154 35.9417 123.112 35.4013 124.412 34.3272C125.713 33.2531 126.62 31.8683 127.125 30.1862C127.63 28.5041 127.886 26.7612 127.886 24.9508V-0.590942H138.617V24.3699C138.617 28.8959 137.912 32.7532 136.5 35.9417C135.089 39.1302 132.902 41.5553 129.941 43.2172C126.979 44.879 123.188 45.7031 118.552 45.7031Z" fill="#2F2B29"/>
<path d="M219.862 35.8133C222.865 35.8133 225.294 35.1446 227.148 33.807C229.002 32.4695 230.351 30.7671 231.189 28.7C232.026 26.6329 232.448 24.5185 232.448 22.3636C232.448 20.7693 232.213 19.1751 231.749 17.5808C231.286 15.9866 230.559 14.5207 229.563 13.1831C228.566 11.8456 227.279 10.7715 225.688 9.95407C224.097 9.13668 222.132 8.72461 219.793 8.72461C216.838 8.72461 214.431 9.37987 212.576 10.6972C210.722 12.0144 209.366 13.7033 208.501 15.7704C207.643 17.8375 207.207 20.0127 207.207 22.3028C207.207 24.5928 207.65 26.7612 208.535 28.8351C209.414 30.9022 210.798 32.5843 212.673 33.8746C214.548 35.1648 216.942 35.8133 219.855 35.8133M219.668 45.7031C214.853 45.7031 210.694 44.7236 207.186 42.7578C203.678 40.7988 200.973 38.0561 199.07 34.5434C197.174 31.0306 196.219 26.9707 196.219 22.3568C196.219 17.7429 197.202 13.4871 199.167 9.97434C201.132 6.46159 203.879 3.72569 207.415 1.7599C210.95 -0.199136 215.116 -1.18541 219.931 -1.18541C224.747 -1.18541 228.774 -0.212647 232.282 1.72612C235.79 3.66489 238.53 6.37377 240.495 9.83923C242.46 13.3115 243.442 17.3917 243.442 22.0933C243.442 26.795 242.474 30.7874 240.529 34.3475C238.585 37.9007 235.838 40.6839 232.282 42.6902C228.725 44.6966 224.526 45.6963 219.668 45.6963" fill="#2F2B29"/>
</g>
<defs>
<clipPath id="clip0_3157_432">
<rect width="293" height="45" fill="white"/>
</clipPath>
</defs>
</svg>
